<svg width="18" height="18" viewBox="0 0 18 18" fill="none" xmlns="http://www.w3.org/2000/svg">
<path d="M14.2959 14.0033L12.6909 10.8008L11.0859 14.0033" stroke="#4790FF" stroke-width="1.2" stroke-linecap="round" stroke-linejoin="round"/>
<path d="M11.377 13.4316H14.017" stroke="#4790FF" stroke-width="1.2" stroke-linecap="round" stroke-linejoin="round"/>
<path d="M12.6909 16.5008C10.5909 16.5008 8.88086 14.7983 8.88086 12.6908C8.88086 10.5908 10.5834 8.88086 12.6909 8.88086C14.7909 8.88086 16.5009 10.5833 16.5009 12.6908C16.5009 14.7983 14.7984 16.5008 12.6909 16.5008Z" stroke="#4790FF" stroke-width="1.2" stroke-linecap="round" stroke-linejoin="round"/>
<path d="M3.765 1.5H6.705C8.2575 1.5 9.00751 2.25001 8.97001 3.76501V6.705C9.00751 8.2575 8.2575 9.00752 6.705 8.97002H3.765C2.25 9.00002 1.5 8.24999 1.5 6.69749V3.75751C1.5 2.25001 2.25 1.5 3.765 1.5Z" stroke="#4790FF" stroke-width="1.2" stroke-linecap="round" stroke-linejoin="round"/>
<path d="M6.75789 4.38672H3.71289" stroke="#4790FF" stroke-width="1.2" stroke-linecap="round" stroke-linejoin="round"/>
<path d="M5.22852 3.87695V4.38695" stroke="#4790FF" stroke-width="1.2" stroke-linecap="round" stroke-linejoin="round"/>
<path d="M5.99258 4.37891C5.99258 5.69141 4.96508 6.75639 3.70508 6.75639" stroke="#4790FF" stroke-width="1.2" stroke-linecap="round" stroke-linejoin="round"/>
<path d="M6.75663 6.75751C6.20913 6.75751 5.71414 6.465 5.36914 6" stroke="#4790FF" stroke-width="1.2" stroke-linecap="round" stroke-linejoin="round"/>
<path d="M1.5 11.25C1.5 14.1525 3.8475 16.5 6.75 16.5L5.9625 15.1875" stroke="#4790FF" stroke-width="1.2" stroke-linecap="round" stroke-linejoin="round"/>
<path d="M16.5 6.75C16.5 3.8475 14.1525 1.5 11.25 1.5L12.0375 2.8125" stroke="#4790FF" stroke-width="1.2" stroke-linecap="round" stroke-linejoin="round"/>
</svg>
