<svg width="16" height="16" viewBox="0 0 16 16" fill="none" xmlns="http://www.w3.org/2000/svg">
<path d="M12.7068 12.4462L11.2802 9.59961L9.85352 12.4462" stroke="#575E6A" stroke-width="1.3" stroke-linecap="round" stroke-linejoin="round"/>
<path d="M10.1133 11.9395H12.46" stroke="#575E6A" stroke-width="1.3" stroke-linecap="round" stroke-linejoin="round"/>
<path d="M11.2792 14.6659C9.41258 14.6659 7.89258 13.1525 7.89258 11.2792C7.89258 9.41255 9.40591 7.89258 11.2792 7.89258C13.1459 7.89258 14.6659 9.40588 14.6659 11.2792C14.6659 13.1525 13.1526 14.6659 11.2792 14.6659Z" stroke="#575E6A" stroke-width="1.3" stroke-linecap="round" stroke-linejoin="round"/>
<path d="M3.34732 1.33398H5.96065C7.34065 1.33398 8.00732 2.00066 7.97399 3.34733V5.96065C8.00732 7.34065 7.34065 8.00733 5.96065 7.974H3.34732C2.00065 8.00067 1.33398 7.33398 1.33398 5.95398V3.34066C1.33398 2.00066 2.00065 1.33398 3.34732 1.33398Z" stroke="#575E6A" stroke-width="1.3" stroke-linecap="round" stroke-linejoin="round"/>
<path d="M6.00549 3.90039H3.29883" stroke="#575E6A" stroke-width="1.3" stroke-linecap="round" stroke-linejoin="round"/>
<path d="M4.64648 3.44727V3.90059" stroke="#575E6A" stroke-width="1.3" stroke-linecap="round" stroke-linejoin="round"/>
<path d="M5.3263 3.89453C5.3263 5.0612 4.41297 6.00785 3.29297 6.00785" stroke="#575E6A" stroke-width="1.3" stroke-linecap="round" stroke-linejoin="round"/>
<path d="M6.00676 6.00732C5.5201 6.00732 5.0801 5.74732 4.77344 5.33398" stroke="#575E6A" stroke-width="1.3" stroke-linecap="round" stroke-linejoin="round"/>
<path d="M1.33398 10C1.33398 12.58 3.42065 14.6667 6.00065 14.6667L5.30065 13.5" stroke="#575E6A" stroke-width="1.3" stroke-linecap="round" stroke-linejoin="round"/>
<path d="M14.6667 6.00065C14.6667 3.42065 12.58 1.33398 10 1.33398L10.7 2.50065" stroke="#575E6A" stroke-width="1.3" stroke-linecap="round" stroke-linejoin="round"/>
</svg>
