<svg width="12" height="12" viewBox="0 0 12 12" fill="none" xmlns="http://www.w3.org/2000/svg">
<path d="M8.48437 6.125V8.375C8.48437 10.25 7.73437 11 5.85937 11H3.60937C1.73437 11 0.984375 10.25 0.984375 8.375V6.125C0.984375 4.25 1.73437 3.5 3.60937 3.5H5.85937C7.73437 3.5 8.48437 4.25 8.48437 6.125Z" stroke="#575E6A" stroke-linecap="round" stroke-linejoin="round"/>
<path d="M10.985 3.75C10.985 5.185 9.89 6.36 8.485 6.485V6.125C8.485 4.25 7.735 3.5 5.86 3.5H5.5C5.625 2.095 6.8 1 8.235 1C9.63 1 10.78 2.035 10.955 3.385C10.975 3.5 10.985 3.625 10.985 3.75Z" stroke="#575E6A" stroke-linecap="round" stroke-linejoin="round"/>
</svg>
