<svg width="40" height="40" viewBox="0 0 40 40" fill="none" xmlns="http://www.w3.org/2000/svg">
<rect width="40" height="40" rx="12" fill="#EDF4FF"/>
<path d="M30.4697 28V14C30.4697 12 29.4697 11 27.4697 11H23.4697C21.4697 11 20.4697 12 20.4697 14V28C20.4697 30 21.4697 31 23.4697 31H27.4697C29.4697 31 30.4697 30 30.4697 28Z" stroke="#4790FF" stroke-width="1.5" stroke-linecap="round"/>
<path d="M20.4697 15H25.4697" stroke="#4790FF" stroke-width="1.5" stroke-linecap="round"/>
<path d="M20.4697 27H24.4697" stroke="#4790FF" stroke-width="1.5" stroke-linecap="round"/>
<path d="M20.4697 22.9531L25.4697 23.0031" stroke="#4790FF" stroke-width="1.5" stroke-linecap="round"/>
<path d="M20.4697 19H23.4697" stroke="#4790FF" stroke-width="1.5" stroke-linecap="round"/>
<path d="M14.4903 11C12.8603 11 11.5303 12.33 11.5303 13.95V26.91C11.5303 27.36 11.7203 28.04 11.9503 28.43L12.7703 29.79C13.7103 31.36 15.2603 31.36 16.2003 29.79L17.0203 28.43C17.2503 28.04 17.4403 27.36 17.4403 26.91V13.95C17.4403 12.33 16.1103 11 14.4903 11Z" stroke="#4790FF" stroke-width="1.5" stroke-linecap="round"/>
<path d="M17.4403 16H11.5303" stroke="#4790FF" stroke-width="1.5" stroke-linecap="round"/>
</svg>
