<svg width="30" height="30" viewBox="0 0 30 30" fill="none" xmlns="http://www.w3.org/2000/svg">
<rect width="30" height="30" rx="8" fill="#EDF4FF"/>
<path d="M19.8668 12.2771V15.7104C19.8668 17.7637 18.6935 18.6437 16.9335 18.6437H11.0735C10.7735 18.6437 10.4868 18.6171 10.2201 18.5571C10.0535 18.5304 9.89347 18.4838 9.74681 18.4304C8.74681 18.0571 8.14014 17.1904 8.14014 15.7104V12.2771C8.14014 10.2237 9.31347 9.34375 11.0735 9.34375H16.9335C18.4268 9.34375 19.5001 9.97708 19.7868 11.4237C19.8335 11.6904 19.8668 11.9637 19.8668 12.2771Z" stroke="#4790FF" stroke-miterlimit="10" stroke-linecap="round" stroke-linejoin="round"/>
<path d="M21.8674 14.2752V17.7085C21.8674 19.7619 20.694 20.6418 18.934 20.6418H13.074C12.5807 20.6418 12.134 20.5752 11.7474 20.4285C10.954 20.1352 10.414 19.5286 10.2207 18.5552C10.4874 18.6152 10.774 18.6418 11.074 18.6418H16.934C18.694 18.6418 19.8674 17.7619 19.8674 15.7085V12.2752C19.8674 11.9619 19.8407 11.6819 19.7874 11.4219C21.054 11.6885 21.8674 12.5819 21.8674 14.2752Z" stroke="#4790FF" stroke-miterlimit="10" stroke-linecap="round" stroke-linejoin="round"/>
<path d="M13.9988 15.7544C14.9708 15.7544 15.7588 14.9664 15.7588 13.9944C15.7588 13.0224 14.9708 12.2344 13.9988 12.2344C13.0268 12.2344 12.2388 13.0224 12.2388 13.9944C12.2388 14.9664 13.0268 15.7544 13.9988 15.7544Z" stroke="#4790FF" stroke-miterlimit="10" stroke-linecap="round" stroke-linejoin="round"/>
<path d="M10.1865 12.5312V15.4646" stroke="#4790FF" stroke-miterlimit="10" stroke-linecap="round" stroke-linejoin="round"/>
<path d="M17.8145 12.5312V15.4646" stroke="#4790FF" stroke-miterlimit="10" stroke-linecap="round" stroke-linejoin="round"/>
</svg>
