<svg width="30" height="30" viewBox="0 0 30 30" fill="none" xmlns="http://www.w3.org/2000/svg">
<rect width="30" height="30" rx="8" fill="#EDF4FF"/>
<path d="M9.83984 14.3476V17.6609C9.83984 18.8743 9.83984 18.8743 10.9865 19.6476L14.1398 21.4676C14.6132 21.7409 15.3865 21.7409 15.8598 21.4676L19.0132 19.6476C20.1598 18.8743 20.1598 18.8743 20.1598 17.6609V14.3476C20.1598 13.1343 20.1598 13.1343 19.0132 12.3609L15.8598 10.5409C15.3865 10.2676 14.6132 10.2676 14.1398 10.5409L10.9865 12.3609C9.83984 13.1343 9.83984 13.1343 9.83984 14.3476Z" stroke="#4790FF" stroke-linecap="round" stroke-linejoin="round"/>
<path d="M18.6668 12.0893V10.3359C18.6668 9.0026 18.0002 8.33594 16.6668 8.33594H13.3335C12.0002 8.33594 11.3335 9.0026 11.3335 10.3359V12.0426" stroke="#4790FF" stroke-linecap="round" stroke-linejoin="round"/>
<path d="M15.4202 14.3247L15.8002 14.918C15.8602 15.0114 15.9935 15.1047 16.0935 15.1314L16.7735 15.3047C17.1935 15.4114 17.3068 15.7714 17.0335 16.1047L16.5868 16.6447C16.5202 16.7314 16.4668 16.8847 16.4735 16.9914L16.5135 17.6914C16.5402 18.1247 16.2335 18.3447 15.8335 18.1847L15.1802 17.9247C15.0802 17.8847 14.9135 17.8847 14.8135 17.9247L14.1602 18.1847C13.7602 18.3447 13.4535 18.118 13.4802 17.6914L13.5202 16.9914C13.5268 16.8847 13.4735 16.7247 13.4068 16.6447L12.9602 16.1047C12.6868 15.7714 12.8002 15.4114 13.2202 15.3047L13.9002 15.1314C14.0068 15.1047 14.1402 15.0047 14.1935 14.918L14.5735 14.3247C14.8135 13.9647 15.1868 13.9647 15.4202 14.3247Z" stroke="#4790FF" stroke-linecap="round" stroke-linejoin="round"/>
</svg>
