<svg width="15" height="14" viewBox="0 0 15 14" fill="none" xmlns="http://www.w3.org/2000/svg">
<path d="M5.16665 12.8333H9.83331C12.1783 12.8333 12.5983 11.8942 12.7208 10.7508L13.1583 6.08417C13.3158 4.66083 12.9075 3.5 10.4166 3.5H4.58331C2.09248 3.5 1.68415 4.66083 1.84165 6.08417L2.27915 10.7508C2.40165 11.8942 2.82165 12.8333 5.16665 12.8333Z" stroke="#202020" stroke-miterlimit="10" stroke-linecap="round" stroke-linejoin="round"/>
<path d="M5.1665 3.4974V3.03073C5.1665 1.99823 5.1665 1.16406 7.03317 1.16406H7.9665C9.83317 1.16406 9.83317 1.99823 9.83317 3.03073V3.4974" stroke="#202020" stroke-miterlimit="10" stroke-linecap="round" stroke-linejoin="round"/>
<path d="M8.66683 7.58333V8.16667C8.66683 8.1725 8.66683 8.1725 8.66683 8.17833C8.66683 8.81417 8.661 9.33333 7.50016 9.33333C6.34516 9.33333 6.3335 8.82 6.3335 8.18417V7.58333C6.3335 7 6.3335 7 6.91683 7H8.0835C8.66683 7 8.66683 7 8.66683 7.58333Z" stroke="#202020" stroke-miterlimit="10" stroke-linecap="round" stroke-linejoin="round"/>
<path d="M13.129 6.41406C11.7815 7.39406 10.2415 7.9774 8.6665 8.17573" stroke="#202020" stroke-miterlimit="10" stroke-linecap="round" stroke-linejoin="round"/>
<path d="M2.02832 6.57031C3.34082 7.46865 4.82249 8.01115 6.33332 8.18031" stroke="#202020" stroke-miterlimit="10" stroke-linecap="round" stroke-linejoin="round"/>
</svg>
