<svg width="39" height="39" viewBox="0 0 39 39" fill="none" xmlns="http://www.w3.org/2000/svg">
<g filter="url(#filter0_d_1560_28869)">
<path d="M14.1988 6.17636C14.1466 5.70531 14.7179 5.43272 15.0512 5.76967L21.2397 12.0262C21.3472 12.1348 21.4984 12.1883 21.6503 12.1715L30.3968 11.2022C30.8678 11.15 31.1404 11.7214 30.8035 12.0547L24.547 18.2432C24.4384 18.3506 24.3848 18.5019 24.4016 18.6537L25.3709 27.4002C25.4231 27.8713 24.8517 28.1439 24.5185 27.8069L18.33 21.5505C18.2225 21.4418 18.0713 21.3883 17.9194 21.4051L9.1729 22.3744C8.70184 22.4266 8.42926 21.8552 8.76621 21.5219L15.0227 15.3334C15.1313 15.226 15.1849 15.0747 15.168 14.9229L14.1988 6.17636Z" fill="#DAEDFF"/>
<path d="M16.162 14.8127L15.351 7.49475L20.5288 12.7294C20.8511 13.0553 21.3048 13.2159 21.7604 13.1654L29.0784 12.3545L23.8438 17.5322C23.5179 17.8546 23.3572 18.3083 23.4077 18.7639L24.2187 26.0819L19.0409 20.8472C18.7186 20.5213 18.2649 20.3607 17.8093 20.4112L10.4913 21.2221L15.7259 16.0444C16.0518 15.722 16.2124 15.2683 16.162 14.8127ZM30.5069 12.1962C30.5066 12.1962 30.5063 12.1962 30.5059 12.1963L30.5069 12.1962ZM30.0995 11.3444C30.0998 11.3442 30.1 11.344 30.1002 11.3437L30.0995 11.3444ZM24.377 27.5104C24.3769 27.5101 24.3769 27.5097 24.3769 27.5094L24.377 27.5104Z" stroke="white" stroke-width="2"/>
</g>
<defs>
<filter id="filter0_d_1560_28869" x="0.816211" y="0.817187" width="37.9369" height="37.9359" filterUnits="userSpaceOnUse" color-interpolation-filters="sRGB">
<feFlood flood-opacity="0" result="BackgroundImageFix"/>
<feColorMatrix in="SourceAlpha" type="matrix" values="0 0 0 0 0 0 0 0 0 0 0 0 0 0 0 0 0 0 127 0" result="hardAlpha"/>
<feOffset dy="3"/>
<feGaussianBlur stdDeviation="3.9"/>
<feComposite in2="hardAlpha" operator="out"/>
<feColorMatrix type="matrix" values="0 0 0 0 0.650374 0 0 0 0 0.789085 0 0 0 0 1 0 0 0 1 0"/>
<feBlend mode="normal" in2="BackgroundImageFix" result="effect1_dropShadow_1560_28869"/>
<feBlend mode="normal" in="SourceGraphic" in2="effect1_dropShadow_1560_28869" result="shape"/>
</filter>
</defs>
</svg>
