<svg width="40" height="40" viewBox="0 0 40 40" fill="none" xmlns="http://www.w3.org/2000/svg">
<rect width="40" height="40" rx="12" fill="white"/>
<path d="M21.7637 23.9375H16.7637" stroke="#575E6A" stroke-width="1.5" stroke-miterlimit="10" stroke-linecap="round" stroke-linejoin="round"/>
<path d="M19.2598 21.5V26.5" stroke="#575E6A" stroke-width="1.5" stroke-miterlimit="10" stroke-linecap="round" stroke-linejoin="round"/>
<path d="M20.1629 11.0181L20.1329 11.0881L17.2329 17.8181H14.3829C13.7029 17.8181 13.0529 17.9581 12.4629 18.2081L14.2129 14.0281L14.2529 13.9281L14.3229 13.7681C14.3429 13.7081 14.3629 13.6481 14.3929 13.5981C15.7029 10.5681 17.1829 9.87814 20.1629 11.0181Z" stroke="#575E6A" stroke-width="1.5" stroke-linecap="round" stroke-linejoin="round"/>
<path d="M25.5524 18.0156C25.1024 17.8756 24.6224 17.8156 24.1424 17.8156H17.2324L20.1324 11.0856L20.1624 11.0156C20.3124 11.0656 20.4524 11.1356 20.6024 11.1956L22.8124 12.1256C24.0424 12.6356 24.9024 13.1656 25.4224 13.8056C25.5224 13.9256 25.6024 14.0356 25.6724 14.1656C25.7624 14.3056 25.8324 14.4456 25.8724 14.5956C25.9124 14.6856 25.9424 14.7756 25.9624 14.8556C26.2324 15.6956 26.0724 16.7256 25.5524 18.0156Z" stroke="#575E6A" stroke-width="1.5" stroke-linecap="round" stroke-linejoin="round"/>
<path d="M29.0198 22.7003V24.6503C29.0198 24.8503 29.0098 25.0503 28.9998 25.2503C28.8098 28.7403 26.8598 30.5003 23.1598 30.5003H15.3598C15.1198 30.5003 14.8798 30.4803 14.6498 30.4503C11.4698 30.2403 9.76977 28.5403 9.55977 25.3603C9.52977 25.1303 9.50977 24.8903 9.50977 24.6503V22.7003C9.50977 20.6903 10.7298 18.9603 12.4698 18.2103C13.0698 17.9603 13.7098 17.8203 14.3898 17.8203H24.1498C24.6398 17.8203 25.1198 17.8903 25.5598 18.0203C27.5498 18.6303 29.0198 20.4903 29.0198 22.7003Z" stroke="#575E6A" stroke-width="1.5" stroke-linecap="round" stroke-linejoin="round"/>
<path d="M14.208 14.0312L12.458 18.2112C10.718 18.9612 9.49805 20.6913 9.49805 22.7013V19.7713C9.49805 16.9313 11.518 14.5612 14.208 14.0312Z" stroke="#575E6A" stroke-width="1.5" stroke-linecap="round" stroke-linejoin="round"/>
<path d="M29.0186 19.7716V22.7016C29.0186 20.5016 27.5586 18.6316 25.5586 18.0316C26.0786 16.7316 26.2286 15.7116 25.9786 14.8616C25.9586 14.7716 25.9286 14.6816 25.8886 14.6016C27.7486 15.5616 29.0186 17.5316 29.0186 19.7716Z" stroke="#575E6A" stroke-width="1.5" stroke-linecap="round" stroke-linejoin="round"/>
</svg>
