<svg width="30" height="30" viewBox="0 0 30 30" fill="none" xmlns="http://www.w3.org/2000/svg">
<rect width="30" height="30" rx="8" fill="#FAFAFC"/>
<path d="M19.0272 9.76065L18.9805 12.2873C18.9738 12.634 19.1938 13.094 19.4738 13.3006L21.1272 14.554C22.1872 15.354 22.0138 16.334 20.7472 16.734L18.5938 17.4073C18.2338 17.5206 17.8538 17.914 17.7605 18.2806L17.2472 20.2406C16.8405 21.7873 15.8272 21.9406 14.9872 20.5806L13.8138 18.6806C13.6005 18.334 13.0938 18.074 12.6938 18.094L10.4672 18.2073C8.87384 18.2873 8.4205 17.3673 9.4605 16.154L10.7805 14.6206C11.0272 14.334 11.1405 13.8006 11.0272 13.4406L10.3539 11.2873C9.96052 10.0206 10.6672 9.32064 11.9272 9.73397L13.8939 10.3806C14.2272 10.4873 14.7272 10.414 15.0072 10.2073L17.0605 8.7273C18.1672 7.9273 19.0538 8.39398 19.0272 9.76065Z" stroke="#575E6A" stroke-width="1.5" stroke-linecap="round" stroke-linejoin="round"/>
<path d="M22.1079 21.6684L20.0879 19.6484" stroke="#575E6A" stroke-width="1.5" stroke-linecap="round" stroke-linejoin="round"/>
</svg>
