<svg width="41" height="40" viewBox="0 0 41 40" fill="none" xmlns="http://www.w3.org/2000/svg">
<rect x="0.5" width="40" height="40" rx="12" fill="#F1F3F9"/>
<path d="M16.67 22H12C10.9 22 10 22.9 10 24V30H16.67V22Z" stroke="#575E6A" stroke-width="1.5" stroke-miterlimit="10" stroke-linecap="round" stroke-linejoin="round"/>
<path d="M21.3302 18H18.6602C17.5602 18 16.6602 18.9 16.6602 20V30H23.3302V20C23.3302 18.9 22.4402 18 21.3302 18Z" stroke="#575E6A" stroke-width="1.5" stroke-miterlimit="10" stroke-linecap="round" stroke-linejoin="round"/>
<path d="M28.0001 25H23.3301V30H30.0001V27C30.0001 25.9 29.1001 25 28.0001 25Z" stroke="#575E6A" stroke-width="1.5" stroke-miterlimit="10" stroke-linecap="round" stroke-linejoin="round"/>
<path d="M20.5202 10.0669L21.0502 11.1269C21.1202 11.2769 21.3102 11.4169 21.4702 11.4369L22.4302 11.5969C23.0402 11.6969 23.1902 12.1469 22.7502 12.5769L22.0002 13.3269C21.8702 13.4569 21.8002 13.6969 21.8402 13.8669L22.0502 14.7869C22.2202 15.5169 21.8302 15.7969 21.1902 15.4169L20.2902 14.8869C20.1302 14.7869 19.8602 14.7869 19.7002 14.8869L18.8002 15.4169C18.1602 15.7969 17.7702 15.5169 17.9402 14.7869L18.1502 13.8669C18.1902 13.6969 18.1202 13.4469 17.9902 13.3269L17.2502 12.5869C16.8102 12.1469 16.9502 11.7069 17.5702 11.6069L18.5302 11.4469C18.6902 11.4169 18.8802 11.2769 18.9502 11.1369L19.4802 10.0769C19.7702 9.49687 20.2302 9.49689 20.5202 10.0669Z" stroke="#575E6A" stroke-width="1.5" stroke-linecap="round" stroke-linejoin="round"/>
</svg>
