<svg width="9" height="8" viewBox="0 0 9 8" fill="none" xmlns="http://www.w3.org/2000/svg">
<path d="M5.20961 0.577671L5.91353 1.99715C6.00952 2.19475 6.26549 2.38428 6.48147 2.42057L7.75733 2.6343C8.57324 2.77141 8.76522 3.36824 8.17728 3.957L7.18539 4.95709C7.01741 5.12645 6.92542 5.4531 6.97741 5.68699L7.26138 6.925C7.48536 7.90492 6.96941 8.28399 6.10951 7.77185L4.91364 7.05808C4.69767 6.92903 4.34171 6.92903 4.12173 7.05808L2.92586 7.77185C2.06996 8.28399 1.55001 7.90089 1.77399 6.925L2.05796 5.68699C2.10995 5.4531 2.01796 5.12645 1.84998 4.95709L0.85809 3.957C0.274155 3.36824 0.462134 2.77141 1.27804 2.6343L2.5539 2.42057C2.76588 2.38428 3.02185 2.19475 3.11784 1.99715L3.82176 0.577671C4.20572 -0.192557 4.82965 -0.192557 5.20961 0.577671Z" fill="#FFD600"/>
</svg>
