<svg width="40" height="40" viewBox="0 0 40 40" fill="none" xmlns="http://www.w3.org/2000/svg">
<rect width="40" height="40" rx="12" fill="#F1F3F9"/>
<path d="M12.1699 23.2998L16.6999 27.8298C18.5599 29.6898 21.5799 29.6898 23.4499 27.8298L27.8399 23.4398C29.6999 21.5798 29.6999 18.5598 27.8399 16.6898L23.2999 12.1698C22.3499 11.2198 21.0399 10.7098 19.6999 10.7798L14.6999 11.0198C12.6999 11.1098 11.1099 12.6998 11.0099 14.6898L10.7699 19.6898C10.7099 21.0398 11.2199 22.3498 12.1699 23.2998Z" stroke="#575E6A" stroke-width="1.5" stroke-linecap="round" stroke-linejoin="round"/>
<path d="M17.5 20C18.8807 20 20 18.8807 20 17.5C20 16.1193 18.8807 15 17.5 15C16.1193 15 15 16.1193 15 17.5C15 18.8807 16.1193 20 17.5 20Z" stroke="#575E6A" stroke-width="1.5" stroke-linecap="round"/>
</svg>
