<svg width="40" height="40" viewBox="0 0 40 40" fill="none" xmlns="http://www.w3.org/2000/svg">
<rect width="40" height="40" rx="12" fill="#F1F3F9"/>
<path d="M26.5 27.5H22.5" stroke="#575E6A" stroke-width="1.5" stroke-linecap="round" stroke-linejoin="round"/>
<path d="M24.5 29.5V25.5" stroke="#575E6A" stroke-width="1.5" stroke-linecap="round" stroke-linejoin="round"/>
<path d="M20.1596 18.87C20.0596 18.86 19.9396 18.86 19.8296 18.87C17.4496 18.79 15.5596 16.84 15.5596 14.44C15.5496 11.99 17.5396 10 19.9896 10C22.4396 10 24.4296 11.99 24.4296 14.44C24.4296 16.84 22.5296 18.79 20.1596 18.87Z" stroke="#575E6A" stroke-width="1.5" stroke-linecap="round" stroke-linejoin="round"/>
<path d="M19.99 29.8097C18.17 29.8097 16.36 29.3497 14.98 28.4297C12.56 26.8097 12.56 24.1697 14.98 22.5597C17.73 20.7197 22.24 20.7197 24.99 22.5597" stroke="#575E6A" stroke-width="1.5" stroke-linecap="round" stroke-linejoin="round"/>
</svg>
