<svg width="14" height="14" viewBox="0 0 14 14" fill="none" xmlns="http://www.w3.org/2000/svg">
<path d="M12.7222 2.29777C11.8239 4.53777 9.57223 7.58277 7.68806 9.09361L6.53889 10.0153C6.39306 10.1203 6.24723 10.2136 6.08389 10.2778C6.08389 10.1728 6.07806 10.0561 6.06056 9.94527C5.99639 9.45527 5.77473 9.00027 5.38389 8.60944C4.98723 8.21277 4.50306 7.97944 4.00723 7.91527C3.89056 7.90944 3.77389 7.89777 3.65723 7.90944C3.72139 7.72861 3.82056 7.55944 3.94306 7.41944L4.85306 6.27027C6.35806 4.38611 9.41473 2.12277 11.6489 1.23027C11.9931 1.10194 12.3256 1.19527 12.5356 1.41111C12.7572 1.62694 12.8622 1.95944 12.7222 2.29777Z" stroke="#575E6A" stroke-linecap="round" stroke-linejoin="round"/>
<path d="M6.08441 10.277C6.08441 10.9187 5.83941 11.5312 5.37857 11.9978C5.02274 12.3537 4.53857 12.5987 3.96107 12.6745L2.52607 12.832C1.74441 12.9195 1.07357 12.2545 1.16691 11.4612L1.32441 10.0262C1.46441 8.74867 2.53191 7.932 3.66357 7.90867C3.78024 7.90283 3.90274 7.90867 4.01357 7.9145C4.50941 7.97867 4.99357 8.20617 5.39024 8.60867C5.78107 8.9995 6.00274 9.4545 6.06691 9.9445C6.07274 10.0553 6.08441 10.1662 6.08441 10.277Z" stroke="#575E6A" stroke-linecap="round" stroke-linejoin="round"/>
<path d="M8.30702 8.43885C8.30702 6.91635 7.07035 5.67969 5.54785 5.67969" stroke="#575E6A" stroke-linecap="round" stroke-linejoin="round"/>
</svg>
