<svg width="40" height="40" viewBox="0 0 40 40" fill="none" xmlns="http://www.w3.org/2000/svg">
<rect width="40" height="40" rx="12" fill="#FAFAFC"/>
<path d="M25.2902 12.1371L25.2202 15.927C25.2102 16.447 25.5403 17.1371 25.9603 17.4471L28.4403 19.327C30.0303 20.527 29.7703 21.9971 27.8703 22.5971L24.6403 23.607C24.1003 23.777 23.5303 24.3671 23.3903 24.9171L22.6203 27.857C22.0103 30.177 20.4902 30.407 19.2302 28.367L17.4702 25.517C17.1502 24.997 16.3902 24.6071 15.7902 24.6371L12.4503 24.807C10.0603 24.927 9.38027 23.5471 10.9403 21.7271L12.9202 19.427C13.2902 18.997 13.4602 18.1971 13.2902 17.6571L12.2803 14.427C11.6903 12.527 12.7503 11.4771 14.6403 12.0971L17.5903 13.0671C18.0903 13.2271 18.8403 13.117 19.2603 12.807L22.3403 10.587C24.0003 9.38705 25.3302 10.0871 25.2902 12.1371Z" stroke="#575E6A" stroke-width="1.5" stroke-linecap="round" stroke-linejoin="round"/>
<path d="M29.9108 29.9987L26.8809 26.9688" stroke="#575E6A" stroke-width="1.5" stroke-linecap="round" stroke-linejoin="round"/>
</svg>
