<svg width="30" height="30" viewBox="0 0 30 30" fill="none" xmlns="http://www.w3.org/2000/svg">
<rect width="30" height="30" rx="8" fill="#EDF4FF"/>
<path d="M19.8663 12.2771V15.7104C19.8663 17.7637 18.693 18.6437 16.933 18.6437H11.073C10.773 18.6437 10.4863 18.6171 10.2196 18.5571C10.053 18.5304 9.89298 18.4838 9.74632 18.4304C8.74632 18.0571 8.13965 17.1904 8.13965 15.7104V12.2771C8.13965 10.2237 9.31298 9.34375 11.073 9.34375H16.933C18.4263 9.34375 19.4996 9.97708 19.7863 11.4237C19.833 11.6904 19.8663 11.9637 19.8663 12.2771Z" stroke="#4790FF" stroke-miterlimit="10" stroke-linecap="round" stroke-linejoin="round"/>
<path d="M21.8674 14.2752V17.7085C21.8674 19.7619 20.694 20.6418 18.934 20.6418H13.074C12.5807 20.6418 12.134 20.5752 11.7474 20.4285C10.954 20.1352 10.414 19.5286 10.2207 18.5552C10.4874 18.6152 10.774 18.6418 11.074 18.6418H16.934C18.694 18.6418 19.8674 17.7619 19.8674 15.7085V12.2752C19.8674 11.9619 19.8407 11.6819 19.7874 11.4219C21.054 11.6885 21.8674 12.5819 21.8674 14.2752Z" stroke="#4790FF" stroke-miterlimit="10" stroke-linecap="round" stroke-linejoin="round"/>
<path d="M13.9983 15.7544C14.9703 15.7544 15.7583 14.9664 15.7583 13.9944C15.7583 13.0224 14.9703 12.2344 13.9983 12.2344C13.0263 12.2344 12.2383 13.0224 12.2383 13.9944C12.2383 14.9664 13.0263 15.7544 13.9983 15.7544Z" stroke="#4790FF" stroke-miterlimit="10" stroke-linecap="round" stroke-linejoin="round"/>
<path d="M10.1855 12.5312V15.4646" stroke="#4790FF" stroke-miterlimit="10" stroke-linecap="round" stroke-linejoin="round"/>
<path d="M17.8145 12.5312V15.4646" stroke="#4790FF" stroke-miterlimit="10" stroke-linecap="round" stroke-linejoin="round"/>
</svg>
