<svg width="95" height="29" viewBox="0 0 95 29" fill="none" xmlns="http://www.w3.org/2000/svg">
<path d="M1.90039 28V3.9375H5.70117L9.2832 22.4902L12.6875 3.9375H16.502V28H13.7402V18.9492L13.9316 10.2812L10.459 27.959H8.06641L4.45703 10.2812L4.64844 18.9492V28H1.90039ZM48.3618 28V3.9375H50.8091L56.1821 19.5098L55.9087 12.7148V3.9375H58.7388V28H56.4419L51.1098 12.1406L51.2876 18.3066V28H48.3618ZM61.4332 28V3.9375H66.3277C67.5673 3.9375 68.5426 4.19271 69.2535 4.70312C69.9736 5.21354 70.484 5.94727 70.7848 6.9043C71.0947 7.85221 71.2496 8.99154 71.2496 10.3223L71.2633 21.0137C71.2633 22.6178 71.0947 23.9349 70.7574 24.9648C70.4293 25.9948 69.8961 26.7604 69.1578 27.2617C68.4195 27.7539 67.4397 28 66.2184 28H61.4332ZM64.6051 25.4844H65.9449C66.428 25.4844 66.8245 25.3841 67.1344 25.1836C67.4534 24.974 67.6904 24.6003 67.8453 24.0625C68.0094 23.5247 68.0914 22.75 68.0914 21.7383L68.0777 10.3223C68.0777 8.92773 67.9091 7.92969 67.5719 7.32812C67.2438 6.72656 66.6878 6.42578 65.9039 6.42578H64.6051V25.4844ZM72.3445 28L75.8991 3.9375H79.905L83.7468 28H80.7663L80.1237 23.5293H75.9675L75.3796 28H72.3445ZM76.2956 20.9727H79.7546L77.9773 8.51758H77.9362L76.2956 20.9727ZM86.8104 28V18.1016L82.6952 3.9375H85.785L88.41 13.3848H88.4647L90.7479 3.9375H93.8514L89.9959 18.1016V28H86.8104Z" fill="#202020"/>
<g clip-path="url(#clip0_2813_41119)">
<circle cx="32.375" cy="20.75" r="12.4856" stroke="#202020" stroke-width="3.02885"/>
</g>
<defs>
<clipPath id="clip0_2813_41119">
<rect width="28" height="21" fill="white" transform="translate(18.375 6.75)"/>
</clipPath>
</defs>
</svg>
