<svg width="32" height="32" viewBox="0 0 32 32" fill="none" xmlns="http://www.w3.org/2000/svg">
<rect width="32" height="32" rx="6" fill="white"/>
<rect width="32" height="32" rx="6" fill="url(#paint0_linear_2503_36991)"/>
<g clip-path="url(#clip0_2503_36991)">
<path d="M18.6354 13L13.8631 13.5785V22.02L17.2083 20.9947C18.0564 20.7348 18.6354 19.9517 18.6354 19.0647V13Z" fill="url(#paint1_linear_2503_36991)"/>
<path d="M18.6354 13L13.8631 13.5785V22.02L17.2083 20.9947C18.0564 20.7348 18.6354 19.9517 18.6354 19.0647V13Z" fill="white" fill-opacity="0.53"/>
<path d="M9.16778 14.1407C8.21649 14.2536 7.5 15.0602 7.5 16.0181V26.5954L10.9823 25.5712C11.8414 25.3185 12.4314 24.53 12.4314 23.6345V13.7532L9.16778 14.1407Z" fill="url(#paint2_linear_2503_36991)"/>
<path d="M9.16778 14.1407C8.21649 14.2536 7.5 15.0602 7.5 16.0181V26.5954L10.9823 25.5712C11.8414 25.3185 12.4314 24.53 12.4314 23.6345V13.7532L9.16778 14.1407Z" fill="white" fill-opacity="0.53"/>
<path d="M24.0103 30.677C24.9616 30.5641 25.6781 29.7575 25.6781 28.7995V18.2223L22.1958 19.2465C21.3367 19.4991 20.7467 20.2876 20.7467 21.1832V31.0644L24.0103 30.677Z" fill="url(#paint3_linear_2503_36991)"/>
<path d="M24.0103 30.677C24.9616 30.5641 25.6781 29.7575 25.6781 28.7995V18.2223L22.1958 19.2465C21.3367 19.4991 20.7467 20.2876 20.7467 21.1832V31.0644L24.0103 30.677Z" fill="white" fill-opacity="0.53"/>
</g>
<g clip-path="url(#clip1_2503_36991)">
<path d="M24.6354 9L19.8631 9.57854V18.02L23.2083 16.9947C24.0564 16.7348 24.6354 15.9517 24.6354 15.0647V9Z" fill="url(#paint4_linear_2503_36991)"/>
<path d="M24.6354 9L19.8631 9.57854V18.02L23.2083 16.9947C24.0564 16.7348 24.6354 15.9517 24.6354 15.0647V9Z" fill="white" fill-opacity="0.53"/>
<path d="M15.1678 10.1407C14.2165 10.2536 13.5 11.0602 13.5 12.0181V22.5954L16.9823 21.5712C17.8414 21.3185 18.4314 20.53 18.4314 19.6345V9.75323L15.1678 10.1407Z" fill="url(#paint5_linear_2503_36991)"/>
<path d="M15.1678 10.1407C14.2165 10.2536 13.5 11.0602 13.5 12.0181V22.5954L16.9823 21.5712C17.8414 21.3185 18.4314 20.53 18.4314 19.6345V9.75323L15.1678 10.1407Z" fill="white" fill-opacity="0.53"/>
<path d="M30.0103 26.677C30.9616 26.5641 31.6781 25.7575 31.6781 24.7995V14.2223L28.1958 15.2465C27.3367 15.4991 26.7467 16.2876 26.7467 17.1832V27.0644L30.0103 26.677Z" fill="url(#paint6_linear_2503_36991)"/>
<path d="M30.0103 26.677C30.9616 26.5641 31.6781 25.7575 31.6781 24.7995V14.2223L28.1958 15.2465C27.3367 15.4991 26.7467 16.2876 26.7467 17.1832V27.0644L30.0103 26.677Z" fill="white" fill-opacity="0.53"/>
</g>
<g clip-path="url(#clip2_2503_36991)">
<path d="M30.6354 5L25.8631 5.57854V14.02L29.2083 12.9947C30.0564 12.7348 30.6354 11.9517 30.6354 11.0647V5Z" fill="url(#paint7_linear_2503_36991)"/>
<path d="M30.6354 5L25.8631 5.57854V14.02L29.2083 12.9947C30.0564 12.7348 30.6354 11.9517 30.6354 11.0647V5Z" fill="white" fill-opacity="0.53"/>
<path d="M21.1678 6.14066C20.2165 6.25359 19.5 7.06017 19.5 8.01814V18.5954L22.9823 17.5712C23.8414 17.3185 24.4314 16.53 24.4314 15.6345V5.75323L21.1678 6.14066Z" fill="url(#paint8_linear_2503_36991)"/>
<path d="M21.1678 6.14066C20.2165 6.25359 19.5 7.06017 19.5 8.01814V18.5954L22.9823 17.5712C23.8414 17.3185 24.4314 16.53 24.4314 15.6345V5.75323L21.1678 6.14066Z" fill="white" fill-opacity="0.53"/>
<path d="M36.0103 22.677C36.9616 22.5641 37.6781 21.7575 37.6781 20.7995V10.2223L34.1958 11.2465C33.3367 11.4991 32.7467 12.2876 32.7467 13.1832V23.0644L36.0103 22.677Z" fill="url(#paint9_linear_2503_36991)"/>
<path d="M36.0103 22.677C36.9616 22.5641 37.6781 21.7575 37.6781 20.7995V10.2223L34.1958 11.2465C33.3367 11.4991 32.7467 12.2876 32.7467 13.1832V23.0644L36.0103 22.677Z" fill="white" fill-opacity="0.53"/>
</g>
<defs>
<linearGradient id="paint0_linear_2503_36991" x1="-1.19209e-07" y1="16" x2="43.687" y2="16" gradientUnits="userSpaceOnUse">
<stop stop-color="#6AB8FF"/>
<stop offset="1" stop-color="#DEF5FF"/>
</linearGradient>
<linearGradient id="paint1_linear_2503_36991" x1="10.8879" y1="31.8113" x2="52.2775" y2="15.4775" gradientUnits="userSpaceOnUse">
<stop stop-color="white"/>
<stop offset="1" stop-color="white"/>
</linearGradient>
<linearGradient id="paint2_linear_2503_36991" x1="10.8879" y1="31.8113" x2="52.2775" y2="15.4775" gradientUnits="userSpaceOnUse">
<stop stop-color="white"/>
<stop offset="1" stop-color="white"/>
</linearGradient>
<linearGradient id="paint3_linear_2503_36991" x1="10.8879" y1="31.8113" x2="52.2775" y2="15.4775" gradientUnits="userSpaceOnUse">
<stop stop-color="white"/>
<stop offset="1" stop-color="white"/>
</linearGradient>
<linearGradient id="paint4_linear_2503_36991" x1="16.8879" y1="27.8113" x2="58.2775" y2="11.4775" gradientUnits="userSpaceOnUse">
<stop stop-color="white"/>
<stop offset="1" stop-color="white"/>
</linearGradient>
<linearGradient id="paint5_linear_2503_36991" x1="16.8879" y1="27.8113" x2="58.2775" y2="11.4775" gradientUnits="userSpaceOnUse">
<stop stop-color="white"/>
<stop offset="1" stop-color="white"/>
</linearGradient>
<linearGradient id="paint6_linear_2503_36991" x1="16.8879" y1="27.8113" x2="58.2775" y2="11.4775" gradientUnits="userSpaceOnUse">
<stop stop-color="white"/>
<stop offset="1" stop-color="white"/>
</linearGradient>
<linearGradient id="paint7_linear_2503_36991" x1="22.8879" y1="23.8113" x2="64.2775" y2="7.47753" gradientUnits="userSpaceOnUse">
<stop stop-color="white"/>
<stop offset="1" stop-color="white"/>
</linearGradient>
<linearGradient id="paint8_linear_2503_36991" x1="22.8879" y1="23.8113" x2="64.2775" y2="7.47753" gradientUnits="userSpaceOnUse">
<stop stop-color="white"/>
<stop offset="1" stop-color="white"/>
</linearGradient>
<linearGradient id="paint9_linear_2503_36991" x1="22.8879" y1="23.8113" x2="64.2775" y2="7.47753" gradientUnits="userSpaceOnUse">
<stop stop-color="white"/>
<stop offset="1" stop-color="white"/>
</linearGradient>
<clipPath id="clip0_2503_36991">
<rect width="5" height="14" fill="white" transform="translate(7.5 13)"/>
</clipPath>
<clipPath id="clip1_2503_36991">
<rect width="5" height="14" fill="white" transform="translate(13.5 9)"/>
</clipPath>
<clipPath id="clip2_2503_36991">
<rect width="5" height="14" fill="white" transform="translate(19.5 5)"/>
</clipPath>
</defs>
</svg>
